<?xml version="1.0" standalone="no"?>
<!DOCTYPE svg PUBLIC "-//W3C//DTD SVG 20010904//EN"
 "http://www.w3.org/TR/2001/REC-SVG-20010904/DTD/svg10.dtd">
<svg version="1.0" xmlns="http://www.w3.org/2000/svg"
 viewBox="0 0 500.000000 500.000000"
 preserveAspectRatio="xMidYMid meet" >

<g transform="translate(0.000000,500.000000) scale(0.100000,-0.100000)"
fill="#000000" stroke="none">
<path d="M840 4674 c-30 -8 -73 -25 -95 -39 -58 -34 -132 -117 -163 -183 l-27
-57 0 -1891 0 -1890 38 -76 c43 -87 98 -142 186 -185 l56 -28 768 -3 767 -2
25 24 c31 31 32 67 3 101 l-23 25 -745 3 -745 2 -50 26 c-64 32 -110 93 -124
161 -8 38 -11 587 -9 1873 l3 1820 22 41 c28 53 96 111 144 124 24 7 333 9
861 8 l823 -3 33 -23 c64 -46 66 -59 72 -352 l5 -265 31 -65 c58 -123 164
-200 299 -220 39 -5 165 -10 281 -10 202 0 212 -1 244 -22 68 -47 70 -58 70
-391 l0 -298 25 -24 c29 -30 74 -32 106 -6 l24 19 3 297 c3 328 -2 370 -58
449 -16 23 -250 262 -522 533 -396 395 -503 497 -543 515 l-50 23 -840 2
c-716 2 -848 0 -895 -13z m2335 -922 c-150 -2 -170 -1 -215 19 -60 26 -125 93
-139 145 -6 22 -11 113 -11 204 l0 165 265 -265 265 -265 -165 -3z"/>
<path d="M888 3183 c-9 -10 -19 -28 -22 -40 -8 -26 16 -78 39 -87 9 -3 306 -6
659 -6 636 0 644 0 670 21 33 26 36 79 6 109 -20 20 -33 20 -678 20 -615 0
-660 -1 -674 -17z"/>
<path d="M3048 2725 c-247 -40 -472 -159 -663 -350 -232 -232 -355 -516 -355
-825 0 -524 369 -1026 870 -1184 271 -86 533 -69 819 52 l84 36 241 -34 c272
-39 289 -40 316 -15 27 25 26 63 -13 335 l-33 225 37 91 c114 280 128 565 43
836 -129 407 -493 731 -926 824 -104 22 -313 27 -420 9z m287 -145 c352 -40
662 -253 834 -571 83 -154 122 -312 122 -494 0 -174 -32 -319 -107 -485 l-27
-61 28 -199 c16 -110 25 -203 22 -207 -4 -3 -99 6 -210 21 l-203 28 -40 -20
c-107 -54 -260 -97 -401 -112 -374 -40 -773 152 -989 476 -270 406 -228 914
105 1286 157 174 430 313 666 338 102 11 102 11 200 0z"/>
<path d="M2632 1624 c-74 -51 -65 -161 16 -200 44 -21 91 -12 126 25 49 52 42
135 -16 175 -29 20 -97 20 -126 0z"/>
<path d="M3180 1623 c-40 -27 -49 -45 -50 -94 0 -57 26 -94 79 -110 96 -29
179 76 131 166 -28 52 -111 72 -160 38z"/>
<path d="M3718 1620 c-56 -43 -61 -125 -10 -173 77 -73 192 -21 192 87 0 30
-7 45 -34 72 -29 29 -41 34 -79 34 -29 0 -53 -7 -69 -20z"/>
<path d="M885 2555 c-32 -31 -32 -66 -1 -102 l24 -28 651 0 c637 0 651 0 670
20 32 33 31 85 -1 115 -21 20 -31 20 -670 20 l-649 0 -24 -25z"/>
<path d="M910 1947 c-13 -7 -31 -24 -39 -38 -19 -33 -1 -81 35 -98 17 -8 165
-11 489 -11 l464 0 27 23 c35 30 37 79 5 110 -21 22 -23 22 -489 25 -361 1
-473 -1 -492 -11z"/>
<path d="M889 1311 c-29 -23 -31 -81 -4 -111 18 -20 27 -20 496 -20 l478 0 20
26 c27 34 27 64 0 98 l-20 26 -474 0 c-447 0 -474 -1 -496 -19z"/>
</g>
</svg>
